<svg xmlns="http://www.w3.org/2000/svg" viewBox="0 0 321.8 122.39"><defs><style>.cls-1{font-size:49px;stroke-width:0.25px;font-family:MicrosoftJhengHeiRegular, Microsoft JhengHei;letter-spacing:0.1em;}.cls-1,.cls-2,.cls-3{fill:#fff;}.cls-1,.cls-2{stroke:#fff;stroke-miterlimit:10;}.cls-2{font-size:36.75px;stroke-width:2px;font-family:MicrosoftJhengHeiUILight, Microsoft JhengHei UI;letter-spacing:0.1em;}.cls-4{fill:#231815;}.cls-5{fill:#f7f8f8;}.cls-6{fill:#faee00;}.cls-7{fill:#040000;}.cls-8{fill:#ea5514;}.cls-9{fill:none;}</style></defs><g id="圖層_2" data-name="圖層 2"><g id="圖層_1-2" data-name="圖層 1"><text class="cls-1" transform="translate(124.81 64.28)"><tspan xml:space="preserve"> 三花喵 </tspan></text><text class="cls-2" transform="translate(146.31 111.37)">STUDIO</text><rect class="cls-3" x="16.67" y="38.05" width="27.94" height="5.7"/><path class="cls-3" d="M47.11,46.25H14.17V35.55H47.11Zm-27.94-5H42.11v-.7H19.17Z" transform="translate(0)"/><path class="cls-3" d="M113.88,24.26c-.31-.69-.8-1.14-1.27-1.14H91.5c-.47,0-1,.45-1.27,1.14L82.7,41.17h38.71Zm-.69,11.15a1.76,1.76,0,0,1-1.52,2.64H92.44a1.76,1.76,0,0,1-1.52-2.64L95.22,28a1.76,1.76,0,0,1,1.52-.88h10.63a1.76,1.76,0,0,1,1.52.88Z" transform="translate(0)"/><path class="cls-3" d="M125.26,43.67H78.85l9.09-20.43a4,4,0,0,1,3.56-2.62h21.11a4.06,4.06,0,0,1,3.56,2.62Zm-10.06-5h2.36l-5.81-13h-1.6a4.37,4.37,0,0,1,.91,1.09l4.3,7.45a4.19,4.19,0,0,1,0,4.26A2.07,2.07,0,0,1,115.2,38.67Zm-28.65,0h2.36c0-.08-.11-.16-.16-.25a4.22,4.22,0,0,1,0-4.26l4.3-7.45A4.33,4.33,0,0,1,94,25.62h-1.6Zm7.17-3.12h16.66l-3.44-6H97.17Z" transform="translate(0)"/><path class="cls-3" d="M107.37,27.08H96.74a1.76,1.76,0,0,0-1.52.88l-4.3,7.45a1.76,1.76,0,0,0,1.52,2.64h19.23a1.76,1.76,0,0,0,1.52-2.64L108.89,28A1.76,1.76,0,0,0,107.37,27.08Z" transform="translate(0)"/><path class="cls-3" d="M111.67,40.55H92.44a4.26,4.26,0,0,1-3.69-6.39l4.3-7.45a4.28,4.28,0,0,1,3.69-2.13h10.63a4.29,4.29,0,0,1,3.69,2.13l4.3,7.45a4.27,4.27,0,0,1-3.69,6.39Zm-18-5h16.66l-3.44-6H97.17Z" transform="translate(0)"/><path class="cls-3" d="M121.07,51.56H83A5.39,5.39,0,0,1,78.53,49a7.43,7.43,0,0,1-1-2.63H14.06a6.23,6.23,0,0,0-6.22,6.22v56a6.23,6.23,0,0,0,6.22,6.22H123.92a6.23,6.23,0,0,0,6.22-6.22v-56a6.22,6.22,0,0,0-3.66-5.67,7.16,7.16,0,0,1-.91,2.08A5.36,5.36,0,0,1,121.07,51.56Z" transform="translate(0)"/><path class="cls-3" d="M123.92,117.24H14.06a8.73,8.73,0,0,1-8.72-8.72v-56a8.73,8.73,0,0,1,8.72-8.72H79.55l.39,2a5,5,0,0,0,.69,1.74A2.89,2.89,0,0,0,83,49.06h38a2.89,2.89,0,0,0,2.41-1.47,4.69,4.69,0,0,0,.58-1.36l.77-2.84,2.68,1.21a8.75,8.75,0,0,1,5.13,7.95v56A8.73,8.73,0,0,1,123.92,117.24ZM14.06,48.83a3.73,3.73,0,0,0-3.72,3.72v56a3.73,3.73,0,0,0,3.72,3.72H123.92a3.72,3.72,0,0,0,3.72-3.72v-56a3.66,3.66,0,0,0-.38-1.64,7.76,7.76,0,0,1-6.19,3.15H83a7.82,7.82,0,0,1-6.6-3.74,9.23,9.23,0,0,1-.79-1.49Z" transform="translate(0)"/><path class="cls-3" d="M83,47.44h38a1.42,1.42,0,0,0,1.05-.73,3.39,3.39,0,0,0,.2-.38H81.79c.06.13.13.26.2.38A1.42,1.42,0,0,0,83,47.44Z" transform="translate(0)"/><path class="cls-3" d="M121.07,49.94H83a3.78,3.78,0,0,1-3.14-1.86,5,5,0,0,1-.39-.72l-1.6-3.53H126.2l-1.6,3.53a6.1,6.1,0,0,1-.39.72A3.77,3.77,0,0,1,121.07,49.94Z" transform="translate(0)"/><path class="cls-3" d="M121.07,49.5H83c-1.66,0-3-1.39-3.43-3.17H77.49a7.43,7.43,0,0,0,1,2.63A5.39,5.39,0,0,0,83,51.56h38a5.36,5.36,0,0,0,4.5-2.6,7.16,7.16,0,0,0,.91-2.08,6,6,0,0,0-2-.52C124,48.13,122.72,49.5,121.07,49.5Z" transform="translate(0)"/><path class="cls-3" d="M121.07,54.06H83a7.82,7.82,0,0,1-6.6-3.74A9.93,9.93,0,0,1,75,46.81l-.58-3h7.07l.5,1.84c.2.75.65,1.33,1,1.33h38c.36,0,.81-.58,1-1.31l.56-2,2.08.19a8.53,8.53,0,0,1,2.79.73l1.94.88-.56,2.06a10,10,0,0,1-1.22,2.78A7.82,7.82,0,0,1,121.07,54.06Z" transform="translate(0)"/><path class="cls-3" d="M122.32,46.33a3.39,3.39,0,0,1-.2.38,1.42,1.42,0,0,1-1.05.73H83A1.42,1.42,0,0,1,82,46.71c-.07-.12-.14-.25-.2-.38H79.61c.48,1.78,1.77,3.17,3.43,3.17h38c1.65,0,2.93-1.37,3.42-3.14a5.17,5.17,0,0,0-.57,0Z" transform="translate(0)"/><path class="cls-3" d="M121.07,52H83c-2.68,0-5-2-5.85-5l-.85-3.15H83.4l.5,1.11h36.31l.47-1,1.64-.06h1.6a7.32,7.32,0,0,1,.81,0l3,.28L126.9,47C126.07,50.05,123.77,52,121.07,52Z" transform="translate(0)"/><path class="cls-3" d="M125.83,41.37l.09.21a7.73,7.73,0,0,1,.63,2.64,8.8,8.8,0,0,1,6,8.33v56a8.79,8.79,0,0,1-8.8,8.79H13.87a8.79,8.79,0,0,1-8.79-8.79v-56a8.8,8.8,0,0,1,8.79-8.8H77.23a7.74,7.74,0,0,1,.58-2.17l.18-.41H13.88A11.39,11.39,0,0,0,2.5,52.55v56a11.38,11.38,0,0,0,11.38,11.37H123.73a11.38,11.38,0,0,0,11.38-11.37v-56A11.4,11.4,0,0,0,125.83,41.37Z" transform="translate(0)"/><path class="cls-3" d="M123.73,122.39H13.88A13.89,13.89,0,0,1,0,108.52v-56A13.9,13.9,0,0,1,13.88,38.67h68L80.1,42.59a5.34,5.34,0,0,0-.4,1.48l-.27,2.18H13.87a6.3,6.3,0,0,0-6.29,6.3v56a6.29,6.29,0,0,0,6.29,6.29H123.73a6.3,6.3,0,0,0,6.3-6.29v-56a6.29,6.29,0,0,0-4.28-6l-1.58-.54-.11-1.66a5.23,5.23,0,0,0-.43-1.8l-2-4.55,4.67.88a13.87,13.87,0,0,1,11.33,13.63v56A13.89,13.89,0,0,1,123.73,122.39Z" transform="translate(0)"/><path class="cls-3" d="M126.74,44.22a7.52,7.52,0,0,0-.64-2.64l-.09-.21-8.36-18.79a5.63,5.63,0,0,0-5-3.58H91.5a5.62,5.62,0,0,0-5,3.58L78.18,41.17l-.18.41a8.11,8.11,0,0,0-.59,2.17H14.06a8.8,8.8,0,0,0-8.79,8.8v56a8.79,8.79,0,0,0,8.79,8.79H123.92a8.79,8.79,0,0,0,8.8-8.79v-56A8.8,8.8,0,0,0,126.74,44.22ZM91.5,23.12h21.11c.47,0,1,.45,1.27,1.14l7.53,16.91H82.7l7.53-16.91C90.53,23.57,91,23.12,91.5,23.12Zm38.64,85.4a6.23,6.23,0,0,1-6.22,6.22H14.06a6.23,6.23,0,0,1-6.22-6.22v-56a6.23,6.23,0,0,1,6.22-6.22H123.92a5.17,5.17,0,0,1,.57,0,6,6,0,0,1,2,.52,6.22,6.22,0,0,1,3.66,5.67Z" transform="translate(0)"/><path class="cls-3" d="M123.92,119.81H14.06A11.3,11.3,0,0,1,2.77,108.52v-56a11.31,11.31,0,0,1,11.29-11.3H75.45a7.07,7.07,0,0,1,.27-.69l8.45-19A8.09,8.09,0,0,1,91.5,16.5h21.11a8.08,8.08,0,0,1,7.32,5.07l8.46,19a9.48,9.48,0,0,1,.62,1.91,11.28,11.28,0,0,1,6.21,10.08v56A11.31,11.31,0,0,1,123.92,119.81Zm-109.86-71a3.73,3.73,0,0,0-3.72,3.72v56a3.73,3.73,0,0,0,3.72,3.72H123.92a3.72,3.72,0,0,0,3.72-3.72v-56a3.72,3.72,0,0,0-2.19-3.39,3.56,3.56,0,0,0-1.18-.31l-.35,0Zm65.87-5h44.25a1,1,0,0,0,0-.16H80Zm6.62-5.16h31l-5.81-13H92.36Z" transform="translate(0)"/><path class="cls-3" d="M53.18,21.05c0,2.49-3,7.36-4.5,9.47-2,3-3.2,4.14-7.29,5.84-3.65,1.51-7.8,1.21-12.39,1.21-4.77,0-10.22.18-14-1.46-3.58-1.55-5.43-3.53-7.78-6.68a14.69,14.69,0,0,1-2.43-8.38C4.82,11.92,15.65,4.52,29,4.52S53.18,11.92,53.18,21.05Z" transform="translate(0)"/><path class="cls-3" d="M32.82,40.1H30.94l-1.94,0H27.75c-4.62,0-9.82,0-13.72-1.67s-6.17-4-8.79-7.49a17.07,17.07,0,0,1-2.92-9.87c0-10.49,12-19,26.68-19s26.68,8.54,26.68,19c0,3.17-3.09,8.18-4.93,10.88-2.31,3.4-3.85,4.85-8.4,6.74A24.41,24.41,0,0,1,32.82,40.1Zm-3.82-5,2,0c3.65,0,6.8.06,9.46-1,3.55-1.47,4.39-2.3,6.18-4.93,2.64-3.88,4.06-7,4.06-8.07C50.68,13.31,41,7,29,7s-21.68,6.29-21.68,14a12.2,12.2,0,0,0,1.93,6.89c2.24,3,3.75,4.56,6.77,5.88s7.61,1.26,11.71,1.26Z" transform="translate(0)"/><path class="cls-3" d="M21.52,37.5s-2.94-6.19-3.36-8.25,0-8.26,0-8.26" transform="translate(0)"/><path class="cls-3" d="M21.52,40a2.49,2.49,0,0,1-2.26-1.43c-.51-1.08-3.09-6.58-3.55-8.82s-.12-7.84,0-8.93a2.5,2.5,0,0,1,5,.34,47.15,47.15,0,0,0-.05,7.59,60,60,0,0,0,3.17,7.68,2.5,2.5,0,0,1-1.19,3.33A2.39,2.39,0,0,1,21.52,40Z" transform="translate(0)"/><line class="cls-3" x1="29" y1="37.57" x2="29" y2="18.01"/><path class="cls-3" d="M29,40.07a2.5,2.5,0,0,1-2.5-2.5V18a2.5,2.5,0,1,1,5,0V37.57A2.5,2.5,0,0,1,29,40.07Z" transform="translate(0)"/><path class="cls-3" d="M36.8,37.43S40.36,32.8,41,30.75s1.1-9.69,1.1-9.69" transform="translate(0)"/><path class="cls-3" d="M36.8,39.93a2.46,2.46,0,0,1-1.52-.51,2.51,2.51,0,0,1-.47-3.51A33.14,33.14,0,0,0,38.64,30a66.34,66.34,0,0,0,1-9.06,2.5,2.5,0,1,1,5,.28c-.08,1.33-.49,8.09-1.22,10.33s-4,6.6-4.62,7.43A2.48,2.48,0,0,1,36.8,39.93Z" transform="translate(0)"/><circle class="cls-3" cx="68.8" cy="79.68" r="19.67"/><path class="cls-3" d="M68.8,101.85A22.18,22.18,0,1,1,91,79.68,22.2,22.2,0,0,1,68.8,101.85Zm0-39.35A17.18,17.18,0,1,0,86,79.68,17.19,17.19,0,0,0,68.8,62.5Z" transform="translate(0)"/><ellipse class="cls-3" cx="68.8" cy="79.68" rx="4.38" ry="19.67"/><path class="cls-3" d="M68.8,101.85c-6.38,0-6.88-17-6.88-22.17s.5-22.18,6.88-22.18,6.89,17,6.89,22.18S75.19,101.85,68.8,101.85Zm0-38c-.89,2.57-1.88,7.95-1.88,15.81s1,13.23,1.88,15.81c.9-2.58,1.89-8,1.89-15.81S69.7,66.44,68.8,63.87Z" transform="translate(0)"/><path class="cls-3" d="M131.35,114.74s-29.42,3.75-39.17.76c-7-2.15-24.83-14.61-24.83-14.61.42.39,14.7-2,21.3-16.51,2.82-6.2.83-7.13.58-10-.5-5.52-3.9-9.55-18.48-13.26-4.84-1.23-8.5-16.25-8.5-16.25h65.9a3.9,3.9,0,0,1,3.88,4Z" transform="translate(0)"/><path class="cls-3" d="M104.28,119.15c-5.12,0-9.81-.33-12.83-1.26C84.35,115.71,67.62,104.13,66,103a2.55,2.55,0,0,1-.38-.29l3.14-3.88a2.31,2.31,0,0,0-1.2-.41c1.88-.05,13.3-3,18.79-15.09,1.69-3.69,1.35-4.8.91-6.2a11.78,11.78,0,0,1-.54-2.49c-.32-3.55-1.86-7.32-16.6-11.06C64.29,62.1,60.76,49.37,59.82,45.5l-.75-3.09h69.08a6.46,6.46,0,0,1,4.59,2,6.34,6.34,0,0,1,1.79,4.53l-.7,68-2.17.28A253.8,253.8,0,0,1,104.28,119.15ZM73.4,102c6.21,4.13,15.34,9.85,19.51,11.13,7,2.14,26.62.49,36-.59l.66-63.69a1.37,1.37,0,0,0-.38-1,1.48,1.48,0,0,0-1-.44H65.53c1.79,5.89,4.33,11,5.84,11.33C85.51,62.34,91,66.53,91.72,74.2a6.72,6.72,0,0,0,.34,1.47c.73,2.36,1.15,4.73-1.13,9.74A31.78,31.78,0,0,1,73.4,102Z" transform="translate(0)"/><path class="cls-3" d="M32.44,60.26c3.16-3.92,4.4-9,5.41-13.93H14.06a6.23,6.23,0,0,0-6.22,6.22V72.07q5.43-1.42,10.71-3.31C23.72,66.9,29,64.54,32.44,60.26Z" transform="translate(0)"/><path class="cls-3" d="M5.34,75.31V52.55a8.73,8.73,0,0,1,8.72-8.72H40.9l-.6,3c-1,5.19-2.37,10.61-5.91,15h0c-3.89,4.82-9.76,7.4-15,9.28-3.5,1.26-7.17,2.39-10.91,3.38Zm8.72-26.48a3.73,3.73,0,0,0-3.72,3.72V68.78c2.51-.72,5-1.52,7.36-2.38,4.81-1.73,9.69-3.86,12.79-7.71h0c2.22-2.75,3.4-6.27,4.26-9.86Z" transform="translate(0)"/><path class="cls-3" d="M53.5,21.18c0,2.49-3,7.37-4.5,9.48-2,3-3.2,4.14-7.29,5.83-3.65,1.52-7.8,1.22-12.39,1.22-4.78,0-10.23.17-14-1.46-3.58-1.56-5.43-3.53-7.78-6.68a14.72,14.72,0,0,1-2.43-8.39C5.14,12.06,16,4.66,29.32,4.66S53.5,12.06,53.5,21.18Z" transform="translate(0)"/><path class="cls-3" d="M33.16,41.23H28.07c-4.7,0-10,0-14.12-1.75s-6.47-4.15-9.19-7.8A18.15,18.15,0,0,1,1.64,21.18c0-11.23,12.16-20,27.68-20S57,10,57,21.18c0,3.27-2.78,8-5.1,11.45s-4.1,5.13-8.84,7.1A25.23,25.23,0,0,1,33.16,41.23Zm-3.84-7h2c3.54,0,6.6.07,9.06-1,3.51-1.45,4.13-2.2,5.74-4.57C48.73,24.85,50,22,50,21.18c0-7.06-9.48-13-20.68-13s-20.68,6-20.68,13a11.26,11.26,0,0,0,1.74,6.3c2.12,2.86,3.55,4.34,6.36,5.56S24,34.22,28,34.21Z" transform="translate(0)"/><path class="cls-3" d="M55.9,21.2c0,2.72-3.33,8-4.91,10.34-2.21,3.25-3.49,4.51-8,6.36-4,1.66-8.51,1.33-13.52,1.33-5.2,0-11.15.19-15.24-1.59-3.9-1.7-5.92-3.86-8.48-7.29A16,16,0,0,1,3.15,21.2c0-9.95,11.81-18,26.37-18S55.9,11.25,55.9,21.2Z" transform="translate(0)"/><path class="cls-3" d="M33.67,40.75H28.15c-4.9,0-10.45,0-14.47-1.72s-6.3-4-9.08-7.77a17.33,17.33,0,0,1-2.95-10c0-10.76,12.5-19.52,27.87-19.52S57.4,10.44,57.4,21.2c0,3.25-3.61,8.9-5.17,11.18-2.4,3.54-3.91,4.95-8.61,6.91C40.52,40.57,37.18,40.75,33.67,40.75Zm-4.15-3h2.16c4.1,0,7.66.07,10.79-1.22,4.27-1.78,5.28-2.88,7.28-5.82,2.32-3.4,4.65-7.65,4.65-9.5,0-9.11-11.16-16.52-24.88-16.52S4.65,12.09,4.65,21.2A14.74,14.74,0,0,0,7,29.45c2.53,3.39,4.35,5.27,7.88,6.81s8.66,1.49,13.26,1.47Z" transform="translate(0)"/><rect class="cls-3" x="16.99" y="38.18" width="25.45" height="5.7"/><path class="cls-4" d="M43.94,45.39H15.49V36.68H43.94Zm-25.45-3H40.94V39.68H18.49Z" transform="translate(0)"/><path class="cls-4" d="M114.2,24.4c-.31-.7-.8-1.14-1.27-1.14H91.81c-.46,0-1,.44-1.27,1.13L83,41.31h38.71Zm-.69,11.15A1.75,1.75,0,0,1,112,38.18H92.76a1.75,1.75,0,0,1-1.52-2.63l4.3-7.45a1.76,1.76,0,0,1,1.52-.88h10.63a1.76,1.76,0,0,1,1.52.88Z" transform="translate(0)"/><path class="cls-3" d="M107.69,27.22H97.06a1.76,1.76,0,0,0-1.52.88l-4.3,7.45a1.75,1.75,0,0,0,1.52,2.63H112a1.75,1.75,0,0,0,1.52-2.63l-4.3-7.45A1.76,1.76,0,0,0,107.69,27.22Z" transform="translate(0)"/><path class="cls-4" d="M112,40.18H92.76A3.72,3.72,0,0,1,89.5,38.3a3.68,3.68,0,0,1,0-3.75L93.8,27.1a3.78,3.78,0,0,1,3.26-1.88h10.63a3.76,3.76,0,0,1,3.25,1.88l4.3,7.45A3.75,3.75,0,0,1,112,40.18Zm-18.81-4h18.39l-4-7H97.2Z" transform="translate(0)"/><path class="cls-5" d="M121.39,51.7h-38a5.38,5.38,0,0,1-4.51-2.61,7.43,7.43,0,0,1-1-2.63H14.38a6.23,6.23,0,0,0-6.22,6.22v56a6.24,6.24,0,0,0,6.22,6.23H124.24a6.24,6.24,0,0,0,6.22-6.23v-56A6.22,6.22,0,0,0,126.8,47a7.25,7.25,0,0,1-.91,2.07A5.35,5.35,0,0,1,121.39,51.7Z" transform="translate(0)"/><path d="M83.36,47.58h38a1.42,1.42,0,0,0,1-.73,3.55,3.55,0,0,0,.2-.39H82.1q.11.21.21.39A1.42,1.42,0,0,0,83.36,47.58Z" transform="translate(0)"/><path class="cls-5" d="M121.39,49.64h-38c-1.66,0-3-1.39-3.43-3.18H77.81a7.43,7.43,0,0,0,1,2.63,5.38,5.38,0,0,0,4.51,2.61h38a5.35,5.35,0,0,0,4.5-2.61A7.25,7.25,0,0,0,126.8,47a6.37,6.37,0,0,0-2-.53C124.32,48.26,123,49.64,121.39,49.64Z" transform="translate(0)"/><path class="cls-5" d="M122.64,46.46a3.55,3.55,0,0,1-.2.39,1.42,1.42,0,0,1-1,.73h-38a1.42,1.42,0,0,1-1-.73q-.11-.18-.21-.39H79.93c.48,1.79,1.77,3.18,3.43,3.18h38c1.65,0,2.93-1.38,3.42-3.15-.19,0-.37,0-.57,0Z" transform="translate(0)"/><path d="M126.14,41.51l.09.2a7.63,7.63,0,0,1,.64,2.65,8.78,8.78,0,0,1,6,8.33v56a8.8,8.8,0,0,1-8.8,8.8H14.19a8.79,8.79,0,0,1-8.79-8.8v-56a8.79,8.79,0,0,1,8.79-8.8H77.54a8.18,8.18,0,0,1,.59-2.18l.18-.4H14.19A11.38,11.38,0,0,0,2.82,52.68v56A11.38,11.38,0,0,0,14.19,120H124.05a11.39,11.39,0,0,0,11.38-11.38v-56A11.39,11.39,0,0,0,126.14,41.51Z" transform="translate(0)"/><path d="M127.06,44.36a7.63,7.63,0,0,0-.64-2.65l-.09-.2L118,22.72a5.65,5.65,0,0,0-5-3.59H91.81a5.63,5.63,0,0,0-5,3.59L78.5,41.31l-.18.4a8.18,8.18,0,0,0-.59,2.18H14.38a8.79,8.79,0,0,0-8.79,8.8v56a8.79,8.79,0,0,0,8.79,8.8H124.24a8.8,8.8,0,0,0,8.8-8.8v-56A8.78,8.78,0,0,0,127.06,44.36ZM91.81,23.26h21.12c.47,0,1,.44,1.27,1.14l7.53,16.91H83l7.52-16.92C90.85,23.7,91.35,23.26,91.81,23.26Zm38.65,85.39a6.24,6.24,0,0,1-6.22,6.23H14.38a6.24,6.24,0,0,1-6.22-6.23v-56a6.23,6.23,0,0,1,6.22-6.22H124.24c.2,0,.38,0,.57,0a6.37,6.37,0,0,1,2,.53,6.22,6.22,0,0,1,3.66,5.66Z" transform="translate(0)"/><path class="cls-3" d="M53.5,21.18c0,2.49-3,7.37-4.5,9.48-2,3-3.2,4.14-7.29,5.83-3.65,1.52-7.8,1.22-12.39,1.22-4.78,0-10.23.17-14-1.46-3.58-1.56-5.43-3.53-7.78-6.68a14.72,14.72,0,0,1-2.43-8.39C5.14,12.06,16,4.66,29.32,4.66S53.5,12.06,53.5,21.18Z" transform="translate(0)"/><path class="cls-4" d="M33.13,39.23H28.06c-4.5,0-9.6,0-13.31-1.58s-5.87-3.79-8.38-7.17a16,16,0,0,1-2.73-9.28c0-9.94,11.52-18,25.68-18S55,11.24,55,21.18c0,3-3.33,8.23-4.76,10.33-2.22,3.26-3.61,4.57-8,6.37A23.49,23.49,0,0,1,33.13,39.23Zm-3.81-3h2c3.76,0,7,.07,9.85-1.11,3.88-1.61,4.8-2.61,6.63-5.29C50.3,26.1,52,22.63,52,21.18c0-8.28-10.17-15-22.68-15S6.64,12.9,6.64,21.18a13.36,13.36,0,0,0,2.13,7.49c2.3,3.09,4,4.81,7.17,6.21s7.9,1.34,12.11,1.33Z" transform="translate(0)"/><path class="cls-4" d="M21.84,39.14a1.51,1.51,0,0,1-1.36-.86c-.3-.65-3-6.42-3.47-8.6s-.07-8,0-8.65a1.47,1.47,0,0,1,1.59-1.4,1.51,1.51,0,0,1,1.4,1.6,48,48,0,0,0,0,7.86A60.5,60.5,0,0,0,23.19,37a1.5,1.5,0,0,1-.71,2A1.61,1.61,0,0,1,21.84,39.14Z" transform="translate(0)"/><path class="cls-4" d="M29.32,39.21a1.5,1.5,0,0,1-1.5-1.5V18.15a1.5,1.5,0,0,1,3,0V37.71A1.5,1.5,0,0,1,29.32,39.21Z" transform="translate(0)"/><path class="cls-4" d="M37.12,39.07a1.52,1.52,0,0,1-.92-.31,1.5,1.5,0,0,1-.27-2.1c1.31-1.72,3.56-4.92,4-6.23a65,65,0,0,0,1-9.32,1.5,1.5,0,0,1,3,.17c0,.8-.47,7.91-1.17,10.07S38.69,38,38.31,38.49A1.51,1.51,0,0,1,37.12,39.07Z" transform="translate(0)"/><circle class="cls-6" cx="69.12" cy="79.81" r="19.67"/><path class="cls-7" d="M69.12,101.49A21.68,21.68,0,1,1,90.8,79.81,21.7,21.7,0,0,1,69.12,101.49Zm0-39.35A17.68,17.68,0,1,0,86.8,79.81,17.69,17.69,0,0,0,69.12,62.14Z" transform="translate(0)"/><ellipse class="cls-4" cx="69.12" cy="79.81" rx="4.38" ry="19.67"/><path class="cls-7" d="M131.67,114.88s-29.42,3.75-39.17.76c-7-2.15-24.83-14.61-24.83-14.61.42.39,14.7-2,21.3-16.51,2.82-6.2.83-7.14.58-10C89.05,69,85.65,65,71.07,61.3c-4.84-1.23-8.5-16.25-8.5-16.25h65.9A3.9,3.9,0,0,1,132.35,49Z" transform="translate(0)"/><path class="cls-8" d="M32.76,60.4c3.16-3.92,4.4-9,5.41-13.94H14.38a6.23,6.23,0,0,0-6.22,6.22V72.21q5.43-1.42,10.71-3.32C24,67,29.31,64.68,32.76,60.4Z" transform="translate(0)"/><rect class="cls-9" x="62.57" width="17.36" height="17.36"/></g></g></svg>