<svg xmlns="http://www.w3.org/2000/svg" viewBox="0 0 229.47 205.44"><defs><style>.cls-1{fill:#fff;}.cls-2{fill:#231815;}.cls-3{fill:#f7f7f7;}.cls-4{fill:#faed00;}.cls-5{fill:#040000;}.cls-6{fill:#e95513;}.cls-7{fill:none;}</style></defs><g id="圖層_2" data-name="圖層 2"><g id="圖層_1-2" data-name="圖層 1"><rect class="cls-1" x="26.49" y="64.4" width="47.3" height="9.65"/><path class="cls-1" d="M76.29,76.56H24V61.9h52.3Zm-47.3-5h42.3V66.9H29Z" transform="translate(0)"/><path class="cls-1" d="M191,41.06c-.52-1.17-1.37-1.92-2.15-1.92H153.14c-.78,0-1.62.75-2.15,1.92L138.25,69.7h65.54Zm-.12,20.7a1.76,1.76,0,0,1-1.52,2.64H152.63a1.76,1.76,0,0,1-1.52-2.64l8.68-15a1.78,1.78,0,0,1,1.53-.88h19.4a1.76,1.76,0,0,1,1.52.88Z" transform="translate(0)"/><path class="cls-1" d="M207.63,72.2H134.4L148.71,40c.94-2.1,2.64-3.4,4.44-3.4h35.74c1.8,0,3.5,1.3,4.43,3.41h0Zm-65.53-5h57.84L188.76,42.08a2.4,2.4,0,0,0-.26-.44h-35a1.81,1.81,0,0,0-.26.44Zm47.3-.3H152.63A4.26,4.26,0,0,1,149,60.52l8.68-15.05a4.28,4.28,0,0,1,3.69-2.13h19.4a4.29,4.29,0,0,1,3.69,2.13l8.68,15h0a4.26,4.26,0,0,1-3.69,6.39ZM188.76,63h0ZM153.92,61.9h34.2l-7.83-13.56H161.75Z" transform="translate(0)"/><path class="cls-1" d="M180.72,45.84h-19.4a1.78,1.78,0,0,0-1.53.88l-8.68,15a1.76,1.76,0,0,0,1.52,2.64H189.4a1.76,1.76,0,0,0,1.52-2.64l-8.68-15A1.76,1.76,0,0,0,180.72,45.84Z" transform="translate(0)"/><path class="cls-1" d="M189.4,66.9H152.63A4.26,4.26,0,0,1,149,60.52l8.68-15.05a4.28,4.28,0,0,1,3.69-2.13h19.4a4.29,4.29,0,0,1,3.69,2.13l8.68,15a4.26,4.26,0,0,1-3.69,6.39Zm-35.48-5h34.2l-7.83-13.56H161.75Z" transform="translate(0)"/><path class="cls-1" d="M203.2,87.28H138.83a9.12,9.12,0,0,1-7.63-4.41,12.59,12.59,0,0,1-1.77-4.45H22.08A10.55,10.55,0,0,0,11.54,89v94.74a10.55,10.55,0,0,0,10.54,10.53H208a10.54,10.54,0,0,0,10.53-10.53V89a10.54,10.54,0,0,0-6.21-9.59,12.36,12.36,0,0,1-1.53,3.51A9.11,9.11,0,0,1,203.2,87.28Z" transform="translate(0)"/><path class="cls-1" d="M208,196.72h-186a13,13,0,0,1-13-13V89a13,13,0,0,1,13-13H131.49l.4,2a9.93,9.93,0,0,0,1.41,3.57,6.65,6.65,0,0,0,5.53,3.27H203.2a6.64,6.64,0,0,0,5.53-3.27A9.87,9.87,0,0,0,210,78.7l.77-2.83,2.67,1.21A13.07,13.07,0,0,1,221.07,89v94.74A13,13,0,0,1,208,196.72Zm-186-115.8a8,8,0,0,0-8,8v94.74a8,8,0,0,0,8,8H208a8,8,0,0,0,8-8V89a8,8,0,0,0-2.51-5.81c-.19.38-.41.74-.63,1.09a11.56,11.56,0,0,1-9.73,5.55H138.83a11.54,11.54,0,0,1-9.72-5.55,14.47,14.47,0,0,1-1.6-3.31Z" transform="translate(0)"/><path class="cls-1" d="M138.83,80.3H203.2A2.38,2.38,0,0,0,205,79.07a5.71,5.71,0,0,0,.35-.65H136.71a4.48,4.48,0,0,0,.35.65A2.36,2.36,0,0,0,138.83,80.3Z" transform="translate(0)"/><path class="cls-1" d="M203.2,82.8H138.83A4.65,4.65,0,0,1,135,80.43a7.85,7.85,0,0,1-.52-1l-1.63-3.54h76.41l-1.62,3.54a6.71,6.71,0,0,1-.53,1A4.62,4.62,0,0,1,203.2,82.8Z" transform="translate(0)"/><path class="cls-1" d="M203.2,83.79H138.83c-2.81,0-5-2.35-5.81-5.37h-3.59a12.59,12.59,0,0,0,1.77,4.45,9.12,9.12,0,0,0,7.63,4.41H203.2a9.11,9.11,0,0,0,7.63-4.41,12.36,12.36,0,0,0,1.53-3.51,10.49,10.49,0,0,0-3.36-.89C208.17,81.47,206,83.79,203.2,83.79Z" transform="translate(0)"/><path class="cls-1" d="M203.2,89.78H138.83a11.54,11.54,0,0,1-9.72-5.55A15,15,0,0,1,127,78.9l-.58-3h8.53l.5,1.84c.48,1.76,1.71,3.53,3.4,3.53H203.2c1.68,0,2.91-1.75,3.39-3.49l.56-2,2.08.19a13,13,0,0,1,4.16,1.1l1.94.88L214.77,80a14.67,14.67,0,0,1-1.84,4.22A11.56,11.56,0,0,1,203.2,89.78Z" transform="translate(0)"/><path class="cls-1" d="M205.33,78.42a5.71,5.71,0,0,1-.35.65,2.38,2.38,0,0,1-1.78,1.23H138.83a2.36,2.36,0,0,1-1.77-1.23,4.48,4.48,0,0,1-.35-.65H133c.82,3,3,5.37,5.81,5.37H203.2c2.8,0,5-2.32,5.8-5.32-.32,0-.64,0-1,0Z" transform="translate(0)"/><path class="cls-1" d="M203.2,86.29H138.83c-3.81,0-7-2.83-8.22-7.22l-.86-3.15h8.56l.67,1.46c.06.11.11.23.17.33l.07.09h63.6l.06-.09a2.06,2.06,0,0,0,.17-.33l.67-1.46H208a11.85,11.85,0,0,1,1.19.06l3,.27-.8,2.88C210.21,83.48,207,86.29,203.2,86.29Z" transform="translate(0)"/><path class="cls-1" d="M211.26,70l.15.34a13.31,13.31,0,0,1,1.08,4.47A14.9,14.9,0,0,1,222.61,89v94.74a14.89,14.89,0,0,1-14.89,14.89h-186A14.89,14.89,0,0,1,6.86,183.69V89A14.89,14.89,0,0,1,21.75,74.06H129a13,13,0,0,1,1-3.68l.3-.68H21.75A19.27,19.27,0,0,0,2.5,89v94.74a19.27,19.27,0,0,0,19.25,19.25h186A19.27,19.27,0,0,0,227,183.69V89A19.27,19.27,0,0,0,211.26,70Z" transform="translate(0)"/><path class="cls-1" d="M207.72,205.44h-186A21.77,21.77,0,0,1,0,183.69V89A21.77,21.77,0,0,1,21.75,67.2H134.14l-1.87,4.19a10.86,10.86,0,0,0-.8,3l-.28,2.19H21.75A12.41,12.41,0,0,0,9.36,89v94.74a12.41,12.41,0,0,0,12.39,12.39h186a12.41,12.41,0,0,0,12.39-12.39V89a12.4,12.4,0,0,0-8.42-11.73l-1.58-.53L210,75a10.81,10.81,0,0,0-.88-3.63L207,66.7l4.68.88A21.75,21.75,0,0,1,229.47,89v94.74A21.77,21.77,0,0,1,207.72,205.44Z" transform="translate(0)"/><path class="cls-1" d="M212.81,74.85a13.08,13.08,0,0,0-1.08-4.47l-.15-.34L197.42,38.23c-1.67-3.75-4.94-6.07-8.53-6.07H153.14c-3.59,0-6.86,2.32-8.52,6.06l-14,31.48-.3.68a13,13,0,0,0-1,3.68H22.07A14.89,14.89,0,0,0,7.18,89v94.74a14.89,14.89,0,0,0,14.89,14.89H208a14.89,14.89,0,0,0,14.89-14.89V89A14.9,14.9,0,0,0,212.81,74.85ZM153.14,39.14h35.75c.78,0,1.63.75,2.15,1.92L203.79,69.7H138.25L151,41.06C151.52,39.89,152.36,39.14,153.14,39.14Zm65.43,144.55A10.54,10.54,0,0,1,208,194.22h-186a10.55,10.55,0,0,1-10.54-10.53V89A10.55,10.55,0,0,1,22.08,78.42H208c.32,0,.64,0,1,0A10.56,10.56,0,0,1,218.57,89Z" transform="translate(0)"/><path class="cls-1" d="M208,201.08h-186A17.41,17.41,0,0,1,4.68,183.69V89A17.41,17.41,0,0,1,22.07,71.56H127.25a15.43,15.43,0,0,1,.77-2.2l14.32-32.15c2.07-4.66,6.21-7.55,10.81-7.55h35.74c4.6,0,8.74,2.89,10.81,7.55L214,69.36a15.46,15.46,0,0,1,1.11,3.71A17.39,17.39,0,0,1,225.43,89v94.74A17.41,17.41,0,0,1,208,201.08ZM22.08,80.92a8,8,0,0,0-8,8v94.74a8,8,0,0,0,8,8H208a8,8,0,0,0,8-8V89a8.06,8.06,0,0,0-7.3-8c-.24,0-.48,0-.73,0Zm109.51-5H208a11.85,11.85,0,0,1,1.19.06,11.16,11.16,0,0,1,1.16.16L210.32,75a10.69,10.69,0,0,0-.88-3.62L195.13,39.24c-1.26-2.83-3.65-4.58-6.24-4.58H153.15c-2.6,0-5,1.75-6.25,4.58L132.59,71.4a10.7,10.7,0,0,0-.8,3Zm76-3.72H134.4L148.71,40c.94-2.1,2.64-3.4,4.44-3.4h35.74c1.8,0,3.5,1.3,4.43,3.41Zm-65.53-5h57.84L188.76,42.08a2.4,2.4,0,0,0-.26-.44h-35a1.63,1.63,0,0,0-.26.44Z" transform="translate(0)"/><path class="cls-1" d="M88.29,35.63c0,4.21-5.17,12.46-7.61,16-3.44,5-5.43,7-12.34,9.87-6.19,2.57-13.22,2.06-21,2.06-8.09,0-17.31.29-23.66-2.47-6.05-2.64-9.19-6-13.16-11.31-2.9-3.89-4.11-9.54-4.11-14.19,0-15.45,18.32-28,40.93-28S88.29,20.18,88.29,35.63Z" transform="translate(0)"/><path class="cls-1" d="M53.79,66.14l-3.14,0-3.29,0H45.23c-7.61,0-16.25.05-22.52-2.68S12.78,57,8.53,51.31c-2.88-3.87-4.6-9.74-4.6-15.68,0-16.81,19.48-30.48,43.43-30.48S90.79,18.82,90.79,35.63c0,5.09-5.63,13.9-8.05,17.45C79,58.6,76.64,60.8,69.3,63.85,64.45,65.86,59.26,66.14,53.79,66.14Zm-6.43-5,3.34,0c6.36.06,11.86.11,16.68-1.89,6.59-2.73,8.14-4.43,11.23-9,4.29-6.3,7.18-12.18,7.18-14.63,0-14.05-17.24-25.48-38.43-25.48S8.93,21.58,8.93,35.63c0,3.79,1,9.11,3.61,12.7,3.9,5.23,6.72,8.14,12.16,10.51s13.39,2.29,20.51,2.26Z" transform="translate(0)"/><path class="cls-1" d="M34.69,63.48s-5-10.48-5.68-14,0-14,0-14" transform="translate(0)"/><path class="cls-1" d="M34.7,66a2.47,2.47,0,0,1-2.26-1.43c-.53-1.1-5.13-10.86-5.88-14.55s-.12-13.53,0-14.64a2.5,2.5,0,0,1,5,.34c-.19,2.82-.57,10.72-.05,13.31S35.61,59.57,37,62.41a2.49,2.49,0,0,1-1.18,3.33A2.42,2.42,0,0,1,34.7,66Z" transform="translate(0)"/><line class="cls-1" x1="47.36" y1="63.6" x2="47.36" y2="30.48"/><path class="cls-1" d="M47.36,66.1a2.5,2.5,0,0,1-2.5-2.5V30.48a2.5,2.5,0,0,1,5,0V63.6A2.5,2.5,0,0,1,47.36,66.1Z" transform="translate(0)"/><path class="cls-1" d="M60.56,63.37s6-7.85,7.15-11.31,1.86-16.41,1.86-16.41" transform="translate(0)"/><path class="cls-1" d="M60.56,65.87A2.45,2.45,0,0,1,59,65.35a2.5,2.5,0,0,1-.47-3.51c2.23-2.9,6-8.33,6.76-10.56s1.47-10.9,1.74-15.78a2.5,2.5,0,0,1,5,.29c-.08,1.36-.79,13.37-2,17s-6.9,11.22-7.54,12.06A2.49,2.49,0,0,1,60.56,65.87Z" transform="translate(0)"/><circle class="cls-1" cx="114.73" cy="134.87" r="33.3"/><path class="cls-1" d="M114.73,170.67a35.8,35.8,0,1,1,35.81-35.8A35.84,35.84,0,0,1,114.73,170.67Zm0-66.6a30.8,30.8,0,1,0,30.81,30.8A30.84,30.84,0,0,0,114.73,104.07Z" transform="translate(0)"/><ellipse class="cls-1" cx="114.73" cy="134.87" rx="7.42" ry="33.3"/><path class="cls-1" d="M114.73,170.67c-9.64,0-9.92-32.13-9.92-35.8s.28-35.8,9.92-35.8,9.93,32.14,9.93,35.8S124.38,170.67,114.73,170.67Zm0-66.42c-1.9,2-4.92,13-4.92,30.62s3,28.62,4.92,30.62c1.91-2,4.93-13,4.93-30.62S116.64,106.25,114.73,104.25Z" transform="translate(0)"/><path class="cls-1" d="M220.6,194.22s-49.8,6.36-66.3,1.29c-11.86-3.64-42-24.73-42-24.73.71.67,24.88-3.41,36.06-27.95,4.78-10.49,1.4-12.07,1-16.85-.83-9.36-6.59-16.17-31.26-22.45-8.2-2.08-14.4-27.51-14.4-27.51H215.19a6.62,6.62,0,0,1,6.57,6.68Z" transform="translate(0)"/><path class="cls-1" d="M174.75,200c-8.48,0-16.21-.54-21.18-2.07-11.76-3.61-39.85-23.07-42.56-25a3,3,0,0,1-.45-.34l3.14-3.88a2.14,2.14,0,0,0-1-.38c2.58.09,23.48-4.82,33.38-26.56,3.12-6.84,2.43-9.11,1.62-11.73a17.88,17.88,0,0,1-.86-3.86c-.59-6.61-3.35-13.62-29.39-20.25-9.19-2.33-15.11-24.85-16.21-29.34l-.75-3.09H215.19a9.17,9.17,0,0,1,6.52,2.8,8.92,8.92,0,0,1,2.55,6.42l-1.18,113.68-2.16.28C219.47,196.89,195,200,174.75,200Zm-56.06-27.83c9,6.07,27.83,18.37,36.34,21,13.89,4.26,53.41,0,63.1-1.12l1.13-109.32a4,4,0,0,0-1.14-2.88,4.18,4.18,0,0,0-3-1.28H106.88c2.71,9.62,7.59,21.52,11.77,22.59,23.08,5.87,32.06,12.54,33.14,24.64a13.45,13.45,0,0,0,.66,2.84c1,3.14,2.06,6.7-1.85,15.27A52.06,52.06,0,0,1,118.69,172.14Z" transform="translate(0)"/><path class="cls-1" d="M53.18,102c5.35-6.63,7.45-15.18,9.15-23.58H22.08A10.55,10.55,0,0,0,11.54,89v33q9.18-2.42,18.12-5.6C38.42,113.24,47.34,109.26,53.18,102Z" transform="translate(0)"/><path class="cls-1" d="M9,125.23V89a13,13,0,0,1,13-13H65.39l-.61,3c-1.73,8.56-3.91,17.52-9.65,24.65h0c-6.31,7.84-16,12.07-24.62,15.17-5.9,2.11-12.06,4-18.33,5.67Zm13-44.31a8,8,0,0,0-8,8v29.78c5.05-1.41,10-3,14.78-4.7,8.38-3,16.9-6.74,22.42-13.59h0c4.4-5.48,6.48-12.52,8-19.52Z" transform="translate(0)"/><path class="cls-1" d="M88.83,35.86c0,4.21-5.17,12.46-7.61,16-3.44,5-5.43,7-12.34,9.87-6.19,2.57-13.22,2.06-21,2.06-8.08,0-17.31.3-23.66-2.47-6-2.63-9.19-6-13.16-11.31C8.18,46.16,7,40.51,7,35.86c0-15.45,18.32-28,40.93-28S88.83,20.41,88.83,35.86Z" transform="translate(0)"/><path class="cls-1" d="M54.35,67.37l-3.17,0-3.28,0H45.77c-7.71,0-16.46,0-22.92-2.77C16.23,61.69,12.62,58,8.27,52.14c-3-4-4.8-10.13-4.8-16.28C3.47,18.5,23.4,4.38,47.9,4.38S92.33,18.5,92.33,35.86c0,5.17-5.15,13.51-8.22,18-3.82,5.62-6.37,8-13.89,11.14C65.21,67.09,59.91,67.37,54.35,67.37Zm-6.45-7,3.35,0c6.25.06,11.65.11,16.29-1.81,6.19-2.57,7.66-4,10.79-8.61,4-6,7-11.88,7-14.07,0-13.5-16.79-24.48-37.43-24.48s-37.43,11-37.43,24.48c0,3.63.89,8.71,3.42,12.1,3.79,5.09,6.51,7.91,11.75,10.19s13.08,2.21,20.11,2.19Z" transform="translate(0)"/><path class="cls-1" d="M92.89,35.89c0,4.59-5.64,13.59-8.3,17.5-3.75,5.5-5.93,7.64-13.46,10.77C64.38,67,56.71,66.4,48.24,66.4c-8.81,0-18.87.32-25.8-2.69-6.6-2.88-10-6.52-14.35-12.34C4.93,47.12,3.6,41,3.6,35.89,3.6,19,23.59,5.38,48.24,5.38S92.89,19,92.89,35.89Z" transform="translate(0)"/><path class="cls-1" d="M55.25,67.94l-3.41,0-3.6,0H45.92c-8.18,0-17.47.06-24.07-2.82-6.78-2.95-10.36-6.63-15-12.82-3-4-4.78-10.14-4.78-16.37,0-17.65,20.7-32,46.14-32s46.15,14.36,46.15,32c0,5.21-6,14.56-8.56,18.34-4,5.79-6.41,8.11-14.13,11.31C66.62,67.65,61.09,67.94,55.25,67.94Zm-7-3,3.63,0c7.08.07,13.19.13,18.68-2.15,7.12-3,9.12-4.83,12.8-10.23s8-13.07,8-16.65c0-16-19.36-29-43.15-29s-43.14,13-43.14,29c0,4.33,1.1,10.43,4.19,14.58,4.38,5.89,7.56,9.17,13.75,11.86,6,2.63,15,2.6,22.87,2.57Z" transform="translate(0)"/><rect class="cls-1" x="27.03" y="64.64" width="43.08" height="9.65"/><path class="cls-2" d="M71.61,75.79H25.53V63.14H71.61Zm-43.08-3H68.61V66.14H28.53Z" transform="translate(0)"/><path class="cls-2" d="M191.58,41.3c-.52-1.18-1.37-1.93-2.15-1.93H153.69c-.79,0-1.63.75-2.16,1.92L138.79,69.93h65.54ZM191.46,62a1.76,1.76,0,0,1-1.52,2.64H153.17A1.76,1.76,0,0,1,151.65,62l8.68-15a1.76,1.76,0,0,1,1.53-.88h19.4a1.74,1.74,0,0,1,1.52.88Z" transform="translate(0)"/><path class="cls-1" d="M181.26,46.08h-19.4a1.76,1.76,0,0,0-1.53.88l-8.68,15a1.76,1.76,0,0,0,1.52,2.64h36.77A1.76,1.76,0,0,0,191.46,62l-8.68-15A1.74,1.74,0,0,0,181.26,46.08Z" transform="translate(0)"/><path class="cls-2" d="M189.94,66.64H153.17A3.76,3.76,0,0,1,149.92,61l8.68-15a3.78,3.78,0,0,1,3.26-1.88h19.4A3.76,3.76,0,0,1,184.51,46l8.69,15a3.76,3.76,0,0,1-3.26,5.64Zm-36.35-4h35.93l-8.4-14.56H162Z" transform="translate(0)"/><path class="cls-3" d="M203.74,87.51H139.37a9.12,9.12,0,0,1-7.63-4.41A12.59,12.59,0,0,1,130,78.65H22.62A10.55,10.55,0,0,0,12.08,89.18v94.74a10.55,10.55,0,0,0,10.54,10.53h186a10.54,10.54,0,0,0,10.53-10.53V89.18a10.55,10.55,0,0,0-6.21-9.59,12.23,12.23,0,0,1-1.53,3.51A9.11,9.11,0,0,1,203.74,87.51Z" transform="translate(0)"/><path d="M139.37,80.53h64.37a2.38,2.38,0,0,0,1.78-1.23,5.71,5.71,0,0,0,.35-.65H137.25a5.71,5.71,0,0,0,.35.65A2.36,2.36,0,0,0,139.37,80.53Z" transform="translate(0)"/><path class="cls-3" d="M203.74,84H139.37c-2.81,0-5-2.35-5.81-5.37H130a12.59,12.59,0,0,0,1.77,4.45,9.12,9.12,0,0,0,7.63,4.41h64.37a9.11,9.11,0,0,0,7.63-4.41,12.23,12.23,0,0,0,1.53-3.51,10.49,10.49,0,0,0-3.36-.89C208.71,81.7,206.54,84,203.74,84Z" transform="translate(0)"/><path class="cls-3" d="M205.87,78.65a5.71,5.71,0,0,1-.35.65,2.38,2.38,0,0,1-1.78,1.23H139.37a2.36,2.36,0,0,1-1.77-1.23,5.71,5.71,0,0,1-.35-.65h-3.69c.82,3,3,5.37,5.81,5.37h64.37c2.8,0,5-2.32,5.8-5.32-.32,0-.64,0-1,0Z" transform="translate(0)"/><path d="M211.8,70.27l.15.34A13.07,13.07,0,0,1,213,75.09a14.88,14.88,0,0,1,10.12,14.09v94.74a14.89,14.89,0,0,1-14.89,14.89h-186A14.89,14.89,0,0,1,7.4,183.92V89.18A14.89,14.89,0,0,1,22.29,74.29H129.53a13,13,0,0,1,1-3.68l.3-.68H22.3A19.27,19.27,0,0,0,3,89.18v94.74A19.28,19.28,0,0,0,22.3,203.18h186a19.28,19.28,0,0,0,19.25-19.26V89.18A19.27,19.27,0,0,0,211.8,70.27Z" transform="translate(0)"/><path d="M213.35,75.09a13.07,13.07,0,0,0-1.08-4.48l-.15-.34L198,38.46c-1.67-3.74-4.94-6.07-8.53-6.07H153.69c-3.6,0-6.87,2.33-8.53,6.07l-14,31.47-.3.68a13,13,0,0,0-1,3.68H22.61A14.89,14.89,0,0,0,7.72,89.18v94.74a14.89,14.89,0,0,0,14.89,14.89h186a14.89,14.89,0,0,0,14.89-14.89V89.18A14.88,14.88,0,0,0,213.35,75.09ZM153.69,39.37h35.74c.78,0,1.63.75,2.15,1.93l12.75,28.63H138.79l12.74-28.64C152.06,40.12,152.9,39.37,153.69,39.37Zm65.42,144.55a10.54,10.54,0,0,1-10.53,10.53h-186a10.55,10.55,0,0,1-10.54-10.53V89.18A10.55,10.55,0,0,1,22.62,78.65h186c.32,0,.64,0,1,0a10.56,10.56,0,0,1,9.57,10.48Z" transform="translate(0)"/><path class="cls-1" d="M88.83,35.86c0,4.21-5.17,12.46-7.61,16-3.44,5-5.43,7-12.34,9.87-6.19,2.57-13.22,2.06-21,2.06-8.08,0-17.31.3-23.66-2.47-6-2.63-9.19-6-13.16-11.31C8.18,46.16,7,40.51,7,35.86c0-15.45,18.32-28,40.93-28S88.83,20.41,88.83,35.86Z" transform="translate(0)"/><path class="cls-2" d="M54.32,65.37l-3.12,0-3.3,0H45.76c-7.51,0-16,0-22.11-2.6C17.41,60,14.11,56.64,9.88,51,7.11,47.24,5.47,41.6,5.47,35.86c0-16.25,19-29.48,42.43-29.48S90.33,19.61,90.33,35.86c0,4.81-5.51,13.41-7.87,16.89-3.63,5.33-5.9,7.46-13,10.41C64.77,65.1,59.69,65.37,54.32,65.37Zm-6.42-3,3.33,0c6.47.07,12.06.12,17.07-2C74.8,57.69,76.63,56,80,51.06s7.35-12,7.35-15.2c0-14.6-17.69-26.48-39.43-26.48S8.47,21.26,8.47,35.86c0,4,1,9.52,3.81,13.29,4,5.38,6.91,8.38,12.56,10.84s13.69,2.37,20.91,2.35Z" transform="translate(0)"/><path class="cls-2" d="M35.24,65.22a1.5,1.5,0,0,1-1.36-.86c-.21-.44-5.06-10.69-5.8-14.32s0-13.94,0-14.38a1.5,1.5,0,0,1,3,.2c-.19,2.86-.58,10.88,0,13.58s4.21,10.76,5.57,13.63a1.51,1.51,0,0,1-1.35,2.15Z" transform="translate(0)"/><path class="cls-2" d="M47.9,65.33a1.5,1.5,0,0,1-1.5-1.5V30.72a1.5,1.5,0,0,1,3,0V63.83A1.5,1.5,0,0,1,47.9,65.33Z" transform="translate(0)"/><path class="cls-2" d="M61.1,65.1a1.47,1.47,0,0,1-.91-.31,1.49,1.49,0,0,1-.28-2.1c1.63-2.13,6-8.23,6.91-10.86s1.59-12.49,1.79-16a1.5,1.5,0,0,1,3,.17c0,.54-.76,13.18-1.94,16.79s-6.75,10.94-7.38,11.76A1.49,1.49,0,0,1,61.1,65.1Z" transform="translate(0)"/><circle class="cls-4" cx="115.27" cy="135.1" r="33.3"/><path class="cls-5" d="M115.27,170.41a35.31,35.31,0,1,1,35.31-35.31A35.35,35.35,0,0,1,115.27,170.41Zm0-66.61a31.31,31.31,0,1,0,31.31,31.3A31.33,31.33,0,0,0,115.27,103.8Z" transform="translate(0)"/><ellipse class="cls-2" cx="115.27" cy="135.1" rx="7.42" ry="33.3"/><path class="cls-5" d="M221.14,194.45s-49.8,6.36-66.3,1.3c-11.86-3.64-42-24.74-42-24.74.71.67,24.88-3.41,36.06-27.95,4.78-10.49,1.4-12.07,1-16.85-.84-9.36-6.6-16.17-31.27-22.45-8.2-2.08-14.4-27.51-14.4-27.51H215.73a6.62,6.62,0,0,1,6.57,6.68Z" transform="translate(0)"/><path class="cls-6" d="M53.72,102.24c5.35-6.64,7.45-15.19,9.15-23.59H22.62A10.55,10.55,0,0,0,12.08,89.18v33q9.18-2.4,18.12-5.6C39,113.47,47.88,109.49,53.72,102.24Z" transform="translate(0)"/><rect class="cls-7" x="104.18" width="29.38" height="29.38"/></g></g></svg>