<svg xmlns="http://www.w3.org/2000/svg" viewBox="0 0 625.84 276.5"><defs><style>.cls-1{fill:#f5fcff;}.cls-2{fill:#e5bc61;}.cls-3{fill:#efdaa7;}.cls-4{fill:#f9efd9;}.cls-5{fill:#a9cbf1;}.cls-6{fill:none;stroke:#000;stroke-miterlimit:10;}.cls-7{fill:#fcfcf7;}.cls-8{fill:#020202;}</style></defs><g id="圖層_2" data-name="圖層 2"><g id="圖層_1-2" data-name="圖層 1"><path class="cls-1" d="M4.57,220.29C7.89,241.47,144.71,258.5,313,258.5c166.65,0,302.44-16.7,308.3-37.59h0a1.51,1.51,0,0,1,2-1,2.64,2.64,0,0,1,1.14,1.7,20.81,20.81,0,0,1-2.37,17,.53.53,0,0,0-.6-.11c-3.42,5.57-21.79,16.9-90.48,25.59-58.23,7.36-135.66,11.41-218,11.41s-159.79-4.05-218-11.41c-59-7.47-79.56-15.77-86.34-21.49a4.39,4.39,0,0,1-2.55-1.12,14.26,14.26,0,0,0,1.21,1.3,10.62,10.62,0,0,1-6.18-6.54,18,18,0,0,1-.62-5.32,33.07,33.07,0,0,1,1.24-9.81,2.72,2.72,0,0,1,1.5-2,1.17,1.17,0,0,1,1.28.7A2.61,2.61,0,0,0,4.57,220.29Z"/><path d="M7.3,242.78a14.26,14.26,0,0,1-1.21-1.3,4.39,4.39,0,0,0,2.55,1.12c6.78,5.72,27.33,14,86.34,21.49,58.23,7.36,135.66,11.41,218,11.41s159.79-4.05,218-11.41c68.69-8.69,87.06-20,90.48-25.59a.53.53,0,0,1,.6.11c.11.1.19.15.4-.11-5.42,20.94-142.56,38-309.5,38C156.76,276.5,27.65,261.82,7.3,242.78Z"/><path class="cls-1" d="M621,56.86a1.68,1.68,0,0,1-.18.21,7.07,7.07,0,0,0,.35-.81,9.19,9.19,0,0,1-2.3,2.6,3.12,3.12,0,0,1-1.37.64c-6.77,4.82-27.73,14.16-86.48,21.59C472.79,88.45,395.36,92.5,313,92.5s-159.79-4-218-11.41C37.39,73.8,16.44,65.73,9.15,60c-.35-.15-1.43-.81-2.27-1.29l0-.06a8.4,8.4,0,0,1-3.67-4A16.62,16.62,0,0,1,1.86,43.25a13.47,13.47,0,0,1,3.13-6A5.32,5.32,0,0,0,4.5,39.5c0,2.57,2,5.07,5.7,7.5C37.86,65,162.91,78.5,313,78.5c170.38,0,308.5-17.46,308.5-39a5.44,5.44,0,0,0-.62-2.47C626.62,42.75,625.81,51.12,621,56.86Z"/><path class="cls-2" d="M37.5,224.5c-24-43-22-96-1-139,2.13-3.73,4.55-8.32,8-11.79C26.29,69.65,13.65,65.13,8,60.33c-.14-.11-1.27-.69-1.44-.82l0,.06A6.59,6.59,0,0,1,5,58.63c.47,52.19.48,105.5,0,158.37H5c-1,1.31-.5,1.15-.5,2.5a1.62,1.62,0,0,0,0,.31.74.74,0,0,1,.05.48C5.77,227.92,24.31,235,55.4,241,47.67,237.42,41.35,232.2,37.5,224.5Z"/><path class="cls-3" d="M598.5,115.5c-2.68-19.64-15.73-38.47-36.28-38-56.11,9.7-146.84,16-249.22,16-115.12,0-215.48-8-268.49-19.79-3.46,3.47-5.88,8.06-8,11.79-21,43-23,96,1,139,3.85,7.7,10.17,12.92,17.9,16.47,55.2,10.56,150,17.53,257.6,17.53,92,0,174.62-5.09,231.14-13.17l-1.64.17,1.64-.17c2.65-.38,5.26-.76,7.79-1.16,17.63-3.3,34.07-11.38,42.57-26.67C612.5,187.5,604.5,149.5,598.5,115.5ZM407.5,213l-34.36-39.26c-13.55,12.54-28.11,24.89-37.46,29.61C322.54,210,304.35,214,284.47,214c-33.74,0-72.38-11.64-99.59-42l-.9-1,.91-1c.28-.31,29.18-31.49,93.6-32.14,70-.69,91.26,25.85,95,31.45,16.61-15.53,31.19-30.71,31.46-31l2.58-2.69Z"/><path class="cls-4" d="M621,217.4c.47-53.62.46-107.23,0-160.54a1.68,1.68,0,0,1-.18.21c-3.92,7.61-25.08,14.62-58.6,20.42,20.55-.46,33.6,18.37,36.28,38,6,34,14,72-4,102-8.5,15.29-24.94,23.37-42.57,26.67,41.29-6.38,66.9-14.45,69.37-23.26a5.28,5.28,0,0,0,.2-1.41A7.56,7.56,0,0,0,621,217.4Z"/><path class="cls-2" d="M32.5,39.5c9-11,23-13,37-16C165.76,5.14,258.92,1,351.74.81Q332.71.49,313,.5C158.07.5,29.81,14.94,7.83,33.76l.46.65A18.88,18.88,0,0,0,5,37.29,5.32,5.32,0,0,0,4.5,39.5c0,2.57,2,5.07,5.7,7.5C16,50.77,26.14,54.35,39.89,57.65,32,53.23,26.3,46.94,32.5,39.5Z"/><path class="cls-3" d="M620.88,37C611.6,18.27,497.47,3.11,351.74.81,258.92,1,165.76,5.14,69.5,23.5c-14,3-28,5-37,16-6.2,7.44-.48,13.73,7.39,18.15C91.54,70.05,194.45,78.5,313,78.5c170.38,0,308.5-17.46,308.5-39A5.44,5.44,0,0,0,620.88,37Z"/><path d="M620.82,57.07C610.35,77.41,476.54,93.5,313,93.5,158.3,93.5,30.22,79.1,8,60.33c-.14-.11-1.27-.69-1.44-.82h0l.36-.76c.84.48,1.92,1.14,2.27,1.29C16.44,65.73,37.39,73.8,95,81.09,153.21,88.45,230.64,92.5,313,92.5s159.79-4,218-11.41c58.75-7.43,79.71-16.77,86.48-21.59a3.12,3.12,0,0,0,1.37-.64,9.19,9.19,0,0,0,2.3-2.6A7.07,7.07,0,0,1,620.82,57.07Z"/><path d="M407.5,135.62V213l-34.36-39.26c-13.55,12.54-28.11,24.89-37.46,29.61C322.54,210,304.35,214,284.47,214c-33.74,0-72.38-11.64-99.59-42l-.9-1,.91-1c.28-.31,29.18-31.49,93.6-32.14,70-.69,91.26,25.85,95,31.45,16.61-15.53,31.19-30.71,31.46-31Zm-3,69.39V143.06c-5,5.14-16.47,16.78-29.16,28.63Zm-70.18-4.35c9-4.55,23.45-16.82,36.9-29.28-2.18-3.38-21.93-30.54-90.08-30.54h-2.62c-56.6.57-85,25-90.45,30.2C230.41,217.17,300,218,334.32,200.66Z"/><path class="cls-5" d="M404.5,143.06V205l-29.16-33.32C388,159.84,399.5,148.2,404.5,143.06Z"/><path class="cls-5" d="M371.22,171.38c-13.45,12.46-27.87,24.73-36.9,29.28C300,218,230.41,217.17,188.07,171.05c5.4-5.19,33.85-29.63,90.45-30.2h2.62C349.29,140.84,369,168,371.22,171.38Z"/><path d="M7.83,33.76l.46.65A18.88,18.88,0,0,0,5,37.29,10.16,10.16,0,0,1,7.83,33.76Z"/><path d="M5,58.63a10.66,10.66,0,0,1-2.67-3.46A17.67,17.67,0,0,1,.88,43c.93-3.8,3.1-6.79,6.83-9.42l.12.17A10.16,10.16,0,0,0,5,37.29a13.47,13.47,0,0,0-3.13,6A16.62,16.62,0,0,0,3.24,54.71a8.4,8.4,0,0,0,3.67,4l0,.06c-.13-.09-.26-.16-.38-.23-1.29-.74-2-1-1,0,.5.5.66.8,1,1h0l0,.06A6.59,6.59,0,0,1,5,58.63Z"/><path d="M6.88,58.73l-.36.76h0c-.34-.2-.5-.5-1-1-1-1-.29-.74,1,0C6.62,58.57,6.75,58.64,6.88,58.73Z"/><path class="cls-6" d="M7.83,33.76C29.81,14.94,158.07.5,313,.5,476.81.5,610.79,16.64,620.88,37"/><path class="cls-6" d="M621,217a2.41,2.41,0,0,0,0,.4,7.56,7.56,0,0,1,.47,2.1,5.28,5.28,0,0,1-.2,1.41C615.44,241.8,479.65,258.5,313,258.5c-168.29,0-305.11-17-308.43-38.21a2.61,2.61,0,0,1-.05-.48,1.62,1.62,0,0,1,0-.31c0-1.35-.55-1.19.5-2.5"/><path class="cls-6" d="M5,221l0-4c.47-52.87.46-106.18,0-158.37"/><path class="cls-6" d="M621,221.5l0-4.1c.47-53.62.46-107.23,0-160.54"/><path class="cls-6" d="M4.37,220.6a.59.59,0,0,0,.2-.31.74.74,0,0,0-.05-.48,1.17,1.17,0,0,0-1.28-.7,2.72,2.72,0,0,0-1.5,2A33.07,33.07,0,0,0,.5,230.92a18,18,0,0,0,.62,5.32,10.62,10.62,0,0,0,6.18,6.54,10.05,10.05,0,0,0,2.17.57"/><path class="cls-6" d="M621.32,221.36a1.29,1.29,0,0,1,0-.44,1.51,1.51,0,0,1,2-1,2.64,2.64,0,0,1,1.14,1.7,20.81,20.81,0,0,1-2.37,17,19.42,19.42,0,0,1-5.78,6"/><path class="cls-6" d="M5,37.29A5.32,5.32,0,0,0,4.5,39.5c0,2.57,2,5.07,5.7,7.5C37.86,65,162.91,78.5,313,78.5c170.38,0,308.5-17.46,308.5-39a5.44,5.44,0,0,0-.62-2.47c5.74,5.72,4.93,14.09.12,19.83a1.68,1.68,0,0,1-.18.21,7.07,7.07,0,0,0,.35-.81,9.19,9.19,0,0,1-2.3,2.6,3.12,3.12,0,0,1-1.37.64c-6.77,4.82-27.73,14.16-86.48,21.59C472.79,88.45,395.36,92.5,313,92.5s-159.79-4-218-11.41C37.39,73.8,16.44,65.73,9.15,60c-.35-.15-1.43-.81-2.27-1.29"/><path class="cls-6" d="M620.82,57.07A17.64,17.64,0,0,1,616,61"/><path class="cls-6" d="M620.88,37a6.25,6.25,0,0,0-.45-.44"/><path class="cls-7" d="M131.29,56.22c-26.09-.15-51.9-4.43-77.48-9.23-3.18-.59-6.35-1.19-9.53-1.8-2.07-.39-5.06-.63-6.47-2.44a2.47,2.47,0,0,1-.48-1s0-.3,0-.28a2,2,0,0,1,.86-.78,13.34,13.34,0,0,1,4.06-1.27c1.47-.3,3-.48,4.44-.75a64.76,64.76,0,0,0,6.53-1.87q9.33-2.7,18.81-4.87c23.07-5.24,46.73-7.85,70.2-10.59s47.18-5,70.84-6.64c23-1.57,46-2.54,69.07-2.33,2.61,0,5.23.06,7.84.12,1.93,0,1.93-3,0-3-23.53-.51-47.07.32-70.55,1.79-24.32,1.53-48.59,3.8-72.79,6.55q-17.43,2-34.81,4.32c-12.55,1.67-25.06,3.5-37.44,6.19Q64.65,30.47,55,33.18C52.25,34,49.5,35,46.69,35.63c-1.31.32-2.67.45-4,.68-2.69.47-6.85,1.1-8.08,4a4.56,4.56,0,0,0,1.27,4.8c1.66,1.72,4.13,2.33,6.38,2.77,26.11,5.09,52.47,10,79.1,11.13q5,.21,9.93.24a1.5,1.5,0,0,0,0-3Z"/><path class="cls-7" d="M606.4,36.76c-.2,6.85-8.87,8.87-14.06,10.47q-10.26,3.15-20.73,5.52c-1.88.42-1.08,3.32.8,2.89q11.64-2.64,23-6.24c6.16-1.95,13.74-5.06,14-12.64.06-1.93-2.94-1.93-3,0Z"/><path class="cls-7" d="M502.34,24.57q17.28.64,34.53,1.93,8.49.63,17,1.42A90.43,90.43,0,0,1,569,30.36a39.26,39.26,0,0,1,7.28,2.69c1.66.83,3.71,2,4.23,3.9,1,3.86-4.61,6.13-7.37,7a177.32,177.32,0,0,1-31.5,7.39A178,178,0,0,1,505,52.67c-1.92-.13-1.92,2.87,0,3A180.5,180.5,0,0,0,573.5,47c3.78-1.25,8.46-3.21,9.83-7.34,1.59-4.82-2.93-8.09-6.73-9.81-10.25-4.62-22-5-33-5.87Q523,22.34,502.34,21.57c-1.94-.07-1.93,2.93,0,3Z"/><path class="cls-8" d="M232.63,171.21a1.2,1.2,0,0,1,.86-1.13c-.09,0-.29,0,.18,0,0,0-.22,0,0,0s-.14-.08.16,0-.06-.05-.12-.09-.1-.08-.14-.09.25.22.08,0l-.21-.21s-.07-.11-.11-.13.2.3.08.1l-.15-.26-.08-.15c-.09-.13.13.36,0,.08a3.7,3.7,0,0,1-.16-.57c-.06-.24,0,.12,0,.15a1,1,0,0,0,0-.17,1.82,1.82,0,0,1,0-.33,1,1,0,0,0,0-.17s-.07.38,0,.15a2.86,2.86,0,0,0,.07-.28c.09-.33-.13.22,0,0l.19-.32c.07-.13-.1.13-.1.14l.1-.12.12-.11c.1-.1.12,0-.13.09a1.76,1.76,0,0,0,.23-.14l.14-.07c.13-.08-.37.12-.11.05l.26-.08a.9.9,0,0,0,.16,0c.14,0-.22,0-.21,0a4.42,4.42,0,0,0,.63,0c-.33,0-.3,0-.17,0l.15,0,.27.07c.32.1-.25-.13,0,0l.3.17c.28.17-.19-.19,0,0a1.47,1.47,0,0,0,.21.22s-.18-.28-.12-.16l.09.13a.83.83,0,0,0,.07.13c.08.11-.11-.35,0-.1,0,.07.06.39.05.12s0,.07,0,.13a.86.86,0,0,0,0,.16s.08-.38,0-.15a1.86,1.86,0,0,0-.1.31c0-.25.13-.26,0-.13a.64.64,0,0,1-.08.14c0,.06-.23.34-.07.13s-.06.06-.1.1-.36.34-.16.16-.07,0-.13.07l-.15.07c-.14.09-.07,0,.14,0a1.2,1.2,0,0,0-.27.08c-.07,0-.26.05,0,0s0,0,0,0h-.12c-.18,0,.33.08.16,0a2.29,2.29,0,0,0-.28-.08c.26,0,.26.13.14.05a.47.47,0,0,0-.12-.07c-.15-.09.09-.06.15.11,0,0-.08-.07-.1-.09L234,169c-.12-.12.1,0,.12.15A1,1,0,0,0,234,169c-.15-.25.09.3.05.1s-.05-.19-.07-.28,0,.38,0,.2a.33.33,0,0,0,0-.1v-.26a.71.71,0,0,0,0-.14s-.07.36,0,.23,0-.2.07-.3.05-.16.07-.24c.1-.31-.14.28,0,.07s.19-.33.29-.5-.25.3,0,0l.17-.18a1.37,1.37,0,0,0,.18-.16c-.31.32-.13.1,0,0s.18-.06.22-.11c-.17.19-.33.11-.17.08l.13,0c.07,0,.36-.07.07,0s.08,0,.16,0h.11c.18,0-.36-.08-.19,0l.24.06c.18.06.3.2,0,0l.25.13c.13.08.27.27,0,0l.19.16.16.18c.25.28-.15-.25,0,0l.27.47c.11.22-.13-.35,0-.06,0,.11.07.21.1.32a1.05,1.05,0,0,1,.06.24l0,.15c0,.15,0-.25,0-.22,0,.19,0,.38,0,.58s-.09.42,0,0c0,.08,0,.16,0,.25a2,2,0,0,1-.07.23c-.11.35.15-.26,0,0l-.12.21a.83.83,0,0,1-.08.12c-.07.11-.14.08.11-.13-.06.05-.11.12-.17.18a.52.52,0,0,0-.11.1c-.09.1.33-.22.1-.08l-.25.15c-.28.18.26-.07,0,0l-.3.09a.66.66,0,0,0-.15,0s.37,0,.16,0-.2,0-.31,0-.38,0-.11,0-.05,0-.11,0l-.35-.1-.15-.05c-.14,0,.18.08.17.07a2.59,2.59,0,0,0-.29-.14L234,170l-.14-.09c-.13-.09-.09-.17.08.06a5.16,5.16,0,0,0-.41-.39.53.53,0,0,0-.1-.12s.22.31.09.11a2.33,2.33,0,0,1-.17-.26c0-.09-.09-.2-.14-.28s.12.36.06.14a.36.36,0,0,0,0-.11l-.06-.27c-.06-.23,0,.14,0,.16a.65.65,0,0,0,0-.19,1.34,1.34,0,0,0,0-.28c0,.23-.05.31,0,.16l0-.15a1.83,1.83,0,0,1,.08-.25c.08-.3-.17.31,0,0l.13-.22c.16-.28-.19.21,0,0a5.55,5.55,0,0,1,.42-.42c.15-.13-.3.22,0,0l.22-.13c.08-.05.16-.08.24-.12s-.14.05-.15.05l.18-.06a2.64,2.64,0,0,1,.55-.15l.15,0s-.37,0-.21,0l.34,0c.18,0,.35,0,.53,0-.48,0-.18,0,0,0l.28.08.14.06s-.35-.18-.15-.07l.22.13c.08,0,.15.1.22.14-.37-.2-.11-.08,0,0s.12.15.18.2c-.24-.21-.16-.22-.09-.11l.08.13.12.23c.1.15-.1-.32-.06-.15a.85.85,0,0,0,.06.17l.06.26c.08.32,0-.31,0-.07s0,.4,0,.6,0-.16,0-.17a.68.68,0,0,0,0,.15l-.06.26-.08.26a1.21,1.21,0,0,0,0,.14c-.09.27.12-.25,0-.1s-.17.35-.27.52l-.16.23c-.17.26.23-.26,0,0a3.5,3.5,0,0,1-.38.39c-.28.25.2-.13,0,0l-.25.17-.27.14c-.22.12.34-.11,0,0L235,171c-.08,0-.46.09-.17,0s0,0-.11,0h-.31c-.26,0,.36.08,0,0-.11,0-.22,0-.33-.09s-.35-.13-.1,0,0,0-.09,0l-.25-.15-.12-.09s.28.23.13.1-.27-.25-.4-.39l-.09-.11c-.11-.11.12.17.11.15s-.13-.18-.19-.28-.18-.33-.27-.5.12.34,0,0a3.19,3.19,0,0,1-.11-.33c0-.17-.08-.34-.12-.52s0,.16,0,.17a.77.77,0,0,0,0-.15c0-.1,0-.21,0-.31s0-.38,0-.57-.07.36,0,.18l0-.15c0-.1,0-.2.07-.3a1.83,1.83,0,0,0,.08-.25c.07-.22-.06.14-.07.15a.83.83,0,0,0,.07-.13c.09-.18.22-.34.31-.52,0,0-.25.29-.09.12l.07-.08.19-.19.12-.1c.17-.16-.11.09-.13.09a1.32,1.32,0,0,0,.25-.16l.27-.14c.22-.12-.35.12,0,0a5.5,5.5,0,0,1,.58-.16l.14,0c.16,0-.23,0-.21,0l.3,0,.61,0c.26,0-.37-.06-.06,0l.3.06.54.17-.15-.06.13.06a1.71,1.71,0,0,1,.23.13l.25.15c.26.17-.24-.21,0,0s.26.25.38.38-.2-.3,0-.05a2.61,2.61,0,0,1,.17.28c0,.06.16.33,0,.08s0,.07,0,.13a2,2,0,0,1,.06.26c0,.16-.08,0,0-.16a1.15,1.15,0,0,0,0,.18,2.22,2.22,0,0,0,0,.36s.08-.37,0-.13l0,.13a3.37,3.37,0,0,1-.1.34c0,.15,0-.14.06-.15s-.07.16-.1.2a3.14,3.14,0,0,1-.18.31c-.18.28.16-.16,0,0l-.21.23c-.06.06-.29.2-.31.28s.3-.21.08-.08l-.11.08a3.3,3.3,0,0,1-.32.18c-.28.17.23-.06,0,0l-.39.12-.13,0c-.24.06.1,0,.13,0a1.1,1.1,0,0,0-.31,0c-.06,0-.48,0-.2,0s-.12,0-.2-.06l-.16-.05c-.18,0,.29.15.13.06l-.25-.13c-.08-.05-.15-.11-.23-.15s.24.21.11.08a1.66,1.66,0,0,1-.14-.13l-.2-.2c-.23-.25.17.27,0,0s-.21-.37-.31-.56.07.18.07.17a.47.47,0,0,0-.06-.15c0-.09,0-.18-.08-.28s0-.21-.07-.31,0,.21,0,.19,0-.13,0-.2,0-.41,0-.6c0,0-.07.39,0,.16l0-.16.09-.3a.53.53,0,0,0,.05-.15s-.15.29-.07.17.1-.19.16-.28l.06-.1c.13-.2-.06.1-.08.11a2,2,0,0,0,.24-.26c.23-.22-.23.15,0,0l.23-.14c.05,0,.4-.19.14-.08s.08,0,.15,0l.31-.07c.32-.08-.3,0,0,0h.63c.26,0-.36-.08,0,0l.31.07.26.08c.12,0,.15.13-.14-.06l.18.09.23.13a.77.77,0,0,0,.13.09s-.28-.25-.12-.09l.2.18.08.09c.18.19-.14-.22-.07-.09l.16.27c.16.26-.06-.27,0,0,0,.08,0,.27.09.33s0-.33,0-.18a1.48,1.48,0,0,0,0,.21c0,.05,0,.11,0,.17s-.09.12,0-.15c0,.09,0,.21-.07.3s-.1.2-.09.28.17-.33.05-.12l-.1.2-.16.25c-.09.14-.11,0,.07-.09a1.27,1.27,0,0,0-.11.13l-.21.22-.1.08c-.21.2.21-.12.07-.05s-.2.13-.29.18l-.12.06c-.21.11.1-.06.13-.05a1.28,1.28,0,0,0-.32.09s-.21,0,0,0,0,0,0,0h-.16c-.16,0-.09-.1.14,0a2.46,2.46,0,0,0-.29-.07c-.29-.07.27.16.07,0a2.4,2.4,0,0,0-.27-.16c-.11-.06.17.13.17.13s-.07-.07-.1-.09-.13-.18-.18-.2.18.27.13.16,0-.07-.07-.11-.09-.19-.15-.27.13.33.08.19,0-.08,0-.13a1.55,1.55,0,0,1-.07-.23c0-.09,0-.19-.06-.28s0,.38,0,.22,0-.11,0-.17v-.28c0-.07,0-.38,0-.08s0,0,0-.08.07-.19.09-.29-.09.2-.09.2,0-.09.06-.12.09-.15.14-.23-.27.27,0,.07l.07-.07c.16-.18.1,0-.1.06,0,0,.16-.1.2-.12.24-.16-.3.06-.07,0,0,0,.22-.09.24-.07s-.38,0,0,0c0,0,.2,0,0,0s0,0,.06,0-.37-.15-.17-.05.22.19-.14-.12l.07.07c.12.13-.18-.3-.11-.15a1.43,1.43,0,0,0,.12.21c-.19-.21-.11-.31-.08-.16s0,.11,0,.17,0-.23,0-.22,0,.1,0,.14,0,.21,0,.3.07-.35,0-.21l0,.15,0,.11c-.05.17-.15.2,0-.08l-.12.24c-.15.27.2-.2,0,0l-.1.11c-.09.1-.16,0,.13-.1-.12.06-.25.16-.37.23s0,.07.06,0a1.59,1.59,0,0,1-.2.07l-.37.09a.44.44,0,0,0-.16,0c.17-.09.24,0,.08,0l-.45,0a11.64,11.64,0,0,1-1.67-.14,1.57,1.57,0,0,0-1.07.44,1.51,1.51,0,0,0-.43,1.06,1.53,1.53,0,0,0,.43,1.07,1.82,1.82,0,0,0,1.07.43,6.42,6.42,0,0,0,4.59-.67,3.68,3.68,0,0,0,1.44-3.9,2.92,2.92,0,0,0-1.32-1.75,3.14,3.14,0,0,0-2.95,0,3.78,3.78,0,0,0-1.92,3.16,4.34,4.34,0,0,0,1.16,3.31,3.7,3.7,0,0,0,4.18.68,4.66,4.66,0,0,0,2.56-3.13,4,4,0,0,0-1.27-3.95c-2.13-1.77-5.71-1.49-7.14,1a5.08,5.08,0,0,0,2.08,6.87,5,5,0,0,0,6.84-4.07,4.33,4.33,0,0,0-1.31-3.5,5.78,5.78,0,0,0-3.39-1.53,5,5,0,0,0-5.53,3.72,5.92,5.92,0,0,0,2.58,6.37,4.42,4.42,0,0,0,3.72.37,5.58,5.58,0,0,0,2.88-2.45,5.42,5.42,0,0,0,.65-3.73,4.17,4.17,0,0,0-2.26-2.9,5.21,5.21,0,0,0-6.63,2,4.23,4.23,0,0,0,0,4,5.27,5.27,0,0,0,3,2.43,4.12,4.12,0,0,0,5.5-3.94c.05-2.38-1.82-5.07-4.43-4.86a4.09,4.09,0,0,0-3.17,2,4.35,4.35,0,0,0-.52,3.44,3.27,3.27,0,0,0,3.27,2.3A4.15,4.15,0,0,0,238,169.5a3.44,3.44,0,0,0-1-3.87,4.41,4.41,0,0,0-4-.85,3.88,3.88,0,0,0-2.76,3,4.85,4.85,0,0,0,1.17,4.13,3.52,3.52,0,0,0,1.75,1.1,1.94,1.94,0,0,0,2.52-1.78,1.5,1.5,0,0,0-3,0Z"/></g></g></svg>